<?xml version="1.0" standalone="no"?>
<!DOCTYPE svg PUBLIC "-//W3C//DTD SVG 20010904//EN"
 "http://www.w3.org/TR/2001/REC-SVG-20010904/DTD/svg10.dtd">
<svg version="1.0" xmlns="http://www.w3.org/2000/svg"
 width="500.000000pt" height="500.000000pt" viewBox="0 0 500.000000 500.000000"
 preserveAspectRatio="xMidYMid meet">
<metadata>
Created by potrace 1.11, written by Peter Selinger 2001-2013
</metadata>
<g transform="translate(0.000000,500.000000) scale(0.100000,-0.100000)"
fill="#000000" stroke="none">
<path d="M0 2500 l0 -2500 2500 0 2500 0 0 2500 0 2500 -2500 0 -2500 0 0
-2500z m2041 1784 c-56 -61 -110 -165 -137 -261 -13 -48 -22 -63 -40 -67 -12
-3 -39 -22 -59 -40 -55 -52 -47 -72 46 -111 l76 -32 109 18 c60 10 133 18 161
19 48 0 53 -2 59 -25 8 -31 -1 -80 -20 -117 -13 -24 -13 -32 0 -55 29 -57 15
-73 -92 -112 l-60 -22 -52 19 c-29 11 -52 19 -52 18 0 -2 9 -29 20 -61 11 -32
20 -66 20 -77 0 -44 -135 -148 -192 -148 -31 0 -115 88 -148 153 -40 80 -39
97 3 97 27 0 112 -17 182 -36 14 -4 11 1 -9 14 -16 11 -48 26 -72 32 -24 7
-44 16 -44 21 0 4 14 21 30 37 36 36 37 40 8 44 -21 3 -24 11 -33 80 l-10 77
-83 -34 c-98 -40 -239 -131 -281 -182 -36 -43 -67 -137 -85 -258 -13 -82 -14
-42 -15 488 l-1 577 411 0 411 0 -51 -56z m1668 -1096 c0 -1105 -1 -1150 -17
-1088 -18 68 -20 73 -119 219 -86 127 -91 149 -68 264 23 114 23 237 0 295
-36 88 -152 147 -275 140 l-55 -3 -48 -90 c-70 -129 -147 -242 -208 -302 -29
-29 -56 -53 -59 -53 -6 0 -1 -240 4 -247 1 -1 26 4 56 12 30 8 55 13 56 12 14
-13 243 -481 239 -486 -4 -3 -21 -11 -38 -17 -26 -9 -34 -18 -41 -52 -15 -72
-15 -72 239 -72 122 0 236 3 253 6 25 5 34 15 50 53 11 25 22 55 25 66 2 11 5
-35 6 -102 l1 -123 -582 1 -583 1 58 20 c64 22 71 33 71 129 1 53 -2 59 -41
102 -24 26 -43 51 -43 57 0 6 24 39 54 74 65 77 152 205 172 253 12 28 13 51
4 126 -6 51 -14 108 -18 127 -8 34 -4 40 84 145 154 185 247 339 281 467 22
82 22 249 0 341 -21 83 -66 175 -113 227 -108 119 -285 113 -426 -17 l-52 -48
34 44 c32 42 142 131 161 131 51 0 -144 226 -296 345 -102 79 -190 130 -285
166 l-75 28 798 1 797 0 -1 -1152z m-2398 -553 c37 -271 117 -619 197 -854 25
-74 32 -86 58 -95 16 -5 101 -9 189 -9 198 0 235 10 248 66 5 21 6 63 2 93
l-7 55 -64 32 c-35 17 -64 37 -64 44 0 8 11 36 25 62 31 63 118 281 138 347
l15 51 -50 67 c-27 38 -48 69 -46 71 2 2 30 -8 62 -21 72 -29 86 -30 86 -5 0
48 112 333 125 319 2 -2 -5 -34 -16 -73 -27 -99 -76 -347 -100 -510 -23 -156
-37 -519 -22 -574 10 -39 17 -42 143 -65 69 -13 31 -14 -442 -15 l-518 -1 1
663 c1 441 5 635 10 582 5 -44 19 -147 30 -230z m757 -1453 c16 -13 16 -14 -3
-10 -19 3 -20 11 -20 158 l-1 155 3 -145 c3 -123 6 -147 21 -158z m79 1 c15
-12 15 -13 1 -13 -25 0 -28 22 -26 173 l2 142 3 -145 c3 -122 6 -147 20 -157z
m-634 247 c15 -17 27 -38 27 -48 -1 -10 -6 -5 -14 13 -17 39 -34 52 -82 65
l-39 10 40 -5 c28 -3 48 -13 68 -35z m-141 10 c-86 -53 -81 -212 8 -257 15 -7
19 -13 10 -13 -26 0 -61 31 -76 66 -18 44 -18 118 1 154 16 30 60 70 79 70 6
0 -4 -9 -22 -20z m1307 6 c64 -34 88 -125 52 -199 -27 -57 -67 -77 -150 -77
l-61 0 0 145 0 145 65 0 c38 0 78 -6 94 -14z m-699 -6 c0 -5 -4 -10 -10 -10
-5 0 -10 5 -10 10 0 6 5 10 10 10 6 0 10 -4 10 -10z m1250 0 c0 -5 -2 -10 -4
-10 -3 0 -8 5 -11 10 -3 6 -1 10 4 10 6 0 11 -4 11 -10z m-1552 -52 c-47 -13
-68 -37 -75 -87 -7 -51 12 -97 46 -116 18 -10 21 -14 9 -15 -9 0 -28 14 -42
31 -62 74 -12 199 79 197 11 0 3 -4 -17 -10z m241 9 c-2 -1 -14 -11 -26 -21
-13 -11 -23 -16 -23 -13 0 10 31 37 42 37 6 0 9 -1 7 -3z m412 -16 c21 -17 24
-28 26 -116 1 -54 -1 -95 -4 -91 -3 3 -7 29 -7 58 -1 50 -3 53 -31 59 l-30 7
32 1 c31 1 32 2 27 34 -12 60 -66 76 -109 32 -14 -13 -25 -20 -25 -15 0 15 52
50 75 50 13 0 33 -9 46 -19z m534 4 c-22 -8 -41 -15 -43 -15 -3 0 -32 -67 -32
-75 0 -3 38 -5 85 -5 84 0 85 0 85 25 0 14 -11 37 -25 50 -13 14 -20 25 -15
25 17 0 50 -53 50 -81 l0 -29 -91 0 c-99 0 -92 6 -73 -60 3 -11 17 -27 32 -35
18 -10 22 -14 10 -15 -22 0 -56 45 -64 85 -13 70 40 146 101 145 11 -1 3 -7
-20 -15z m269 -6 c14 -11 26 -28 26 -37 -1 -12 -6 -8 -16 10 -8 16 -28 31 -47
37 -22 6 -26 9 -11 10 12 1 33 -8 48 -20z m279 10 c12 -7 26 -19 31 -28 9 -14
11 -12 17 9 4 14 7 -30 8 -98 1 -166 -12 -192 -100 -192 -43 0 -80 27 -78 58
0 13 2 14 6 2 13 -35 37 -50 79 -50 52 0 84 33 84 88 l0 35 -23 -21 c-13 -12
-27 -22 -31 -22 -4 0 5 10 20 23 38 33 46 119 14 159 -12 15 -36 32 -53 37
-18 5 -24 10 -14 10 10 1 28 -4 40 -10z m251 0 c14 -7 28 -19 31 -28 12 -28
16 -191 5 -191 -6 0 -10 39 -10 94 0 101 -4 110 -57 126 -15 4 -20 9 -11 9 9
1 28 -4 42 -10z m-1907 -14 c31 -22 47 -85 33 -135 -12 -43 -37 -65 -85 -74
l-30 -6 30 11 c43 17 64 37 74 75 12 45 -3 98 -36 124 -30 23 -18 27 14 5z
m100 -152 c-2 -32 -3 -6 -3 57 0 63 1 89 3 58 2 -32 2 -84 0 -115z m118 57 c0
-60 -3 -110 -7 -110 -5 0 -8 50 -8 110 0 61 3 110 8 110 4 0 7 -49 7 -110z
m1070 90 c-29 -32 -13 -67 38 -81 23 -6 50 -18 60 -26 32 -29 16 -94 -22 -92
-11 0 -8 4 7 11 15 8 22 20 22 40 0 24 -6 31 -37 44 -73 28 -88 39 -91 67 -3
29 12 57 31 57 5 0 2 -9 -8 -20z m182 -147 c-2 -32 -3 -6 -3 57 0 63 1 89 3
58 2 -32 2 -84 0 -115z m96 143 c-25 -22 -28 -31 -28 -86 0 -55 3 -64 28 -86
29 -25 30 -28 2 -18 -25 10 -45 58 -45 108 0 33 6 52 26 75 14 17 30 31 35 31
6 0 -3 -11 -18 -24z m228 -87 c-1 -57 -4 -105 -6 -108 -3 -2 -5 47 -5 109 0
62 3 111 6 107 3 -3 6 -52 5 -108z m48 108 c-2 -1 -13 -9 -24 -17 -19 -14 -19
-14 -6 3 7 9 18 17 24 17 6 0 8 -1 6 -3z m-2059 -154 c0 -36 -3 -64 -6 -61 -3
4 -5 31 -5 62 l0 55 -47 4 -47 3 53 2 52 2 0 -67z m710 39 c-40 -20 -51 -59
-25 -86 9 -9 13 -16 8 -16 -27 0 -44 58 -25 86 10 15 44 33 62 34 8 0 -1 -8
-20 -18z m711 -61 c-12 -22 -49 -46 -58 -38 -2 3 4 8 15 11 10 4 25 18 32 31
7 14 15 23 17 21 3 -2 0 -14 -6 -25z m93 -29 c16 -8 17 -11 4 -11 -17 -1 -49
35 -47 54 0 5 5 0 11 -11 5 -12 20 -27 32 -32z m-1554 13 c-13 -14 -31 -25
-39 -24 -11 0 -10 3 4 9 12 4 27 15 34 24 7 9 16 16 19 16 3 0 -5 -11 -18 -25z
m820 -10 c-7 -8 -17 -15 -23 -15 -6 0 -2 7 9 15 25 19 30 19 14 0z m-883 -21
c-3 -3 -12 -4 -19 -1 -8 3 -5 6 6 6 11 1 17 -2 13 -5z m840 0 c-3 -3 -12 -4
-19 -1 -8 3 -5 6 6 6 11 1 17 -2 13 -5z m1110 0 c-3 -3 -12 -4 -19 -1 -8 3 -5
6 6 6 11 1 17 -2 13 -5z m-1014 -301 c-7 -2 -19 -2 -25 0 -7 3 -2 5 12 5 14 0
19 -2 13 -5z m-63 -16 c-13 -7 -35 -28 -48 -47 -20 -30 -23 -44 -20 -97 3 -53
9 -68 33 -93 16 -16 36 -30 44 -31 10 0 11 -3 4 -5 -19 -8 -52 14 -73 49 -22
35 -27 118 -10 162 12 32 57 75 79 75 10 0 7 -5 -9 -13z m111 3 c19 -11 54
-68 46 -76 -2 -3 -10 9 -17 26 -7 17 -25 37 -39 45 -14 8 -22 14 -18 15 5 0
17 -5 28 -10z m267 -84 c32 -31 40 -101 18 -144 -16 -30 -52 -59 -63 -49 -2 3
4 8 15 11 22 7 52 62 52 94 0 58 -46 112 -95 112 -49 0 -95 -54 -95 -112 0
-32 30 -87 52 -94 11 -3 17 -8 15 -11 -10 -10 -47 18 -62 47 -30 59 -6 148 48
170 34 15 88 3 115 -24z m-231 -143 c-16 -30 -62 -61 -74 -50 -3 4 0 7 9 7 17
0 52 36 62 64 3 10 9 16 12 13 3 -3 -1 -18 -9 -34z m323 -47 c0 -3 -4 -8 -10
-11 -5 -3 -10 -1 -10 4 0 6 5 11 10 11 6 0 10 -2 10 -4z m-413 -12 c-3 -3 -12
-4 -19 -1 -8 3 -5 6 6 6 11 1 17 -2 13 -5z m260 0 c-3 -3 -12 -4 -19 -1 -8 3
-5 6 6 6 11 1 17 -2 13 -5z"/>
<path d="M1775 3749 c-4 -6 -2 -15 5 -19 8 -5 18 -23 24 -42 12 -36 23 -38
112 -23 37 7 46 4 88 -29 48 -36 48 -36 77 -19 17 10 51 36 76 59 67 58 55 68
-66 58 -138 -12 -187 -8 -293 22 -9 3 -20 0 -23 -7z"/>
<path d="M1848 3601 l-33 -30 26 -1 c18 0 29 8 38 26 17 38 8 40 -31 5z"/>
<path d="M1903 3596 c-18 -39 -18 -40 15 -50 20 -7 22 -4 22 33 0 53 -16 60
-37 17z"/>
<path d="M2894 2289 c-36 -8 -42 -14 -52 -48 -17 -56 -86 -157 -159 -233 l-65
-67 41 -57 c28 -39 41 -68 41 -90 0 -18 3 -35 8 -37 4 -2 36 1 72 7 l64 11 13
45 c7 25 22 75 32 112 l19 67 -29 41 c-35 48 -37 42 49 131 54 56 54 57 42 93
-12 38 -13 39 -76 25z"/>
<path d="M2530 1314 l0 -136 70 4 c56 3 74 8 95 28 55 52 55 152 -1 208 -30
30 -37 32 -98 32 l-66 0 0 -136z"/>
</g>
</svg>
